<svg width="100" height="49" viewBox="0 0 100 49" fill="none" xmlns="http://www.w3.org/2000/svg">
<g clip-path="url(#clip0_1020_454)">
<path d="M23.7988 24.5021L40.0003 15.1633C43.8174 12.869 45.1342 8.11887 42.8641 4.30176C40.594 0.484662 35.8196 -0.832136 32.0025 1.43793L4.16797 17.6354L23.7988 24.5021Z" fill="#EA4335"/>
<path d="M36.0017 48.685C37.3949 48.6718 38.7607 48.2962 39.9646 47.595C41.1686 46.8939 42.1694 45.8914 42.8684 44.6861C43.4113 43.7896 43.7682 42.793 43.918 41.7557C44.0677 40.7183 44.0071 39.6615 43.7399 38.648C43.4727 37.6346 43.0043 36.6852 42.3626 35.8566C41.7208 35.0279 40.9189 34.3369 40.0046 33.8246L11.9842 17.6352C10.163 16.5746 7.99515 16.281 5.95745 16.8188C3.91975 17.3566 2.17916 18.6819 1.1186 20.5031C0.0580312 22.3243 -0.235629 24.4921 0.302202 26.5298C0.840033 28.5675 2.1653 30.3081 3.98647 31.3687L32.0028 47.5702C33.2147 48.2866 34.5939 48.6711 36.0017 48.685Z" fill="#4285F4"/>
<path d="M63.995 48.6857C65.4035 48.6582 66.7809 48.2672 67.9938 47.5506L96.0102 31.3492L76.3793 24.3047L59.9961 33.8252C56.179 36.1195 54.8622 40.8697 57.1323 44.6868C57.8135 45.9066 58.8096 46.9212 60.0168 47.6246C61.224 48.3281 62.5978 48.6945 63.995 48.6857Z" fill="#FBBC04"/>
<path d="M92.0066 32.5081C93.3998 32.4949 94.7656 32.1192 95.9696 31.4181C97.1735 30.7169 98.1743 29.7144 98.8733 28.5092C99.4182 27.6122 99.7767 26.6146 99.9274 25.576C100.078 24.5373 100.018 23.479 99.7509 22.4641C99.4836 21.4492 99.0145 20.4986 98.3717 19.6689C97.7289 18.8393 96.9255 18.1477 96.0095 17.6355L68.0174 1.43402C67.1156 0.908881 66.1193 0.56649 65.0852 0.426411C64.0511 0.286332 62.9996 0.351306 61.9906 0.617613C59.9529 1.15544 58.2123 2.48071 57.1518 4.30189C56.6266 5.20364 56.2843 6.2 56.1442 7.23407C56.0041 8.26815 56.0691 9.31969 56.3354 10.3287C56.8732 12.3664 58.1985 14.1069 60.0197 15.1675L88.0117 31.369C89.2004 32.1375 90.5913 32.5341 92.0066 32.5081Z" fill="#0F9D58"/>
</g>
<defs>
<clipPath id="clip0_1020_454">
<rect width="100" height="48.3621" fill="white" transform="translate(0 0.319336)"/>
</clipPath>
</defs>
</svg>
