 <svg  version="1.0" xmlns="http://www.w3.org/2000/svg"  width="1350.000000pt" height="1251.000000pt" viewBox="0 0 1350.000000 1251.000000"  preserveAspectRatio="xMidYMid meet">  <g transform="translate(0.000000,1251.000000) scale(0.100000,-0.100000)" fill="#ebe0e0" stroke="none"> <path d="M2625 12500 c3 -5 -10 -16 -28 -24 -63 -26 -67 -39 -67 -243 l0 -183 -212 0 c-164 0 -223 -4 -258 -15 -151 -52 -254 -144 -316 -285 -19 -44 -19 -93 -19 -2885 l0 -2840 35 -70 c39 -77 115 -159 185 -200 101 -59 101 -60 593 -65 l453 -5 -1 -585 c-1 -356 -5 -605 -12 -635 -20 -97 -21 -273 -3 -334 41 -135 116 -232 202 -260 52 -17 85 -9 129 32 35 32 53 83 86 237 14 69 0 196 -29 255 -27 57 -43 84 -60 102 -22 24 -24 76 -8 163 9 47 23 119 31 160 7 41 20 109 29 150 8 41 19 104 25 140 6 35 15 80 20 100 5 19 16 85 25 145 21 144 24 155 34 155 11 0 21 -36 21 -79 0 -18 5 -62 12 -97 9 -53 9 -73 -5 -121 -9 -32 -19 -96 -22 -142 -3 -47 -11 -105 -17 -130 -9 -41 -12 -818 -3 -1011 14 -298 24 -1161 15 -1260 -5 -63 -14 -191 -20 -285 -5 -93 -14 -217 -19 -275 -11 -105 -24 -298 -41 -590 -5 -85 -13 -209 -19 -275 -17 -187 -31 -434 -37 -667 l-7 -213 24 -21 c33 -29 113 -54 175 -54 91 0 165 44 206 124 19 38 19 41 3 153 -15 105 -15 116 0 133 24 26 33 60 80 295 8 39 21 102 30 140 8 39 22 104 31 145 8 41 21 105 29 143 8 37 21 97 29 135 8 37 22 103 31 147 10 44 23 110 31 148 8 37 20 97 28 135 34 159 71 345 85 428 5 27 17 83 27 124 26 108 32 71 33 -190 1 -124 5 -290 11 -370 6 -80 15 -266 21 -415 5 -148 14 -367 20 -485 14 -304 14 -621 0 -713 -14 -91 -6 -129 38 -171 36 -35 104 -45 227 -35 107 9 270 44 379 81 17 6 48 14 70 19 52 10 127 32 140 40 6 4 26 10 45 14 19 4 50 18 67 32 28 20 33 30 33 66 -1 51 -20 76 -80 101 -25 10 -56 23 -70 28 -14 6 -38 14 -55 18 -16 5 -55 18 -85 30 -117 45 -136 52 -160 57 -37 8 -81 43 -73 56 4 6 12 74 19 152 40 445 98 934 150 1255 23 146 43 329 54 505 6 88 15 210 21 270 24 268 52 1517 39 1750 -6 94 -14 256 -20 361 -5 105 -16 267 -24 360 -17 196 -23 320 -15 329 7 7 3498 7 3510 0 4 -3 1 -27 -7 -53 -30 -91 -118 -533 -144 -722 -6 -41 -15 -88 -19 -105 -5 -16 -12 -55 -15 -85 -4 -30 -11 -75 -16 -100 -9 -44 -18 -99 -47 -290 -7 -52 -21 -138 -29 -190 -8 -52 -19 -131 -24 -175 -5 -44 -15 -99 -21 -122 -9 -34 -8 -45 4 -64 12 -16 15 -37 11 -83 -6 -67 9 -278 31 -426 22 -153 43 -283 49 -310 3 -14 11 -70 17 -125 22 -209 52 -444 83 -657 9 -60 23 -156 32 -215 8 -60 22 -153 30 -208 28 -186 59 -396 90 -610 51 -359 51 -443 -1 -562 -34 -77 -80 -122 -195 -190 -117 -70 -130 -81 -130 -107 0 -64 163 -107 265 -71 22 8 48 15 57 15 17 0 77 23 108 41 8 5 26 14 40 20 14 6 40 22 58 36 20 15 55 28 90 33 113 17 169 46 198 102 13 26 14 38 4 77 -7 25 -18 60 -25 76 -8 17 -21 57 -30 90 -9 33 -21 71 -26 85 -5 14 -14 50 -20 80 -6 30 -15 75 -21 100 -6 27 -11 306 -12 690 -2 355 -6 706 -10 780 l-7 135 21 -40 c12 -22 30 -67 42 -100 11 -33 26 -74 34 -92 8 -17 14 -38 14 -46 0 -9 4 -18 9 -22 5 -3 12 -19 16 -36 4 -17 13 -42 21 -57 8 -15 14 -35 14 -44 0 -9 4 -19 9 -23 5 -3 12 -19 16 -36 4 -17 13 -42 21 -57 8 -15 14 -32 14 -38 0 -7 7 -25 15 -40 8 -16 15 -36 15 -45 0 -8 4 -19 8 -25 5 -5 59 -146 121 -314 62 -168 117 -314 122 -325 10 -24 47 -130 95 -273 44 -132 48 -147 94 -427 6 -38 18 -90 26 -115 8 -25 14 -54 14 -65 0 -34 40 -136 70 -180 42 -62 91 -95 138 -95 38 0 42 3 62 46 20 40 22 55 16 127 -15 200 -49 370 -92 464 -8 17 -14 36 -14 42 0 6 -4 19 -10 29 -5 9 -19 40 -30 67 -11 28 -26 59 -32 70 -16 28 -27 76 -44 190 -8 55 -21 143 -29 195 -8 52 -22 142 -30 200 -9 58 -22 146 -30 195 -66 439 -97 664 -119 850 -18 149 -34 251 -46 290 -5 17 -19 64 -31 105 -11 41 -27 89 -35 107 -8 17 -14 38 -14 46 0 9 -4 18 -9 22 -5 3 -13 20 -17 37 -3 18 -10 39 -14 48 -45 86 -48 98 -38 136 9 35 24 101 47 204 4 19 19 60 33 90 14 30 35 80 47 110 12 30 26 64 31 75 5 11 23 58 40 105 52 139 61 164 75 195 7 17 16 45 19 62 4 18 12 35 17 38 5 4 9 13 9 22 0 8 6 29 14 46 19 42 106 303 106 318 0 6 6 25 14 42 8 18 19 52 26 77 6 25 18 70 26 100 55 205 67 289 61 430 -4 109 -20 190 -53 267 -8 17 -14 35 -14 40 0 11 -35 80 -49 97 -6 7 -8 16 -4 19 3 4 283 7 622 7 662 0 637 -1 751 52 53 25 168 138 192 188 9 19 25 53 35 75 17 38 18 152 18 2865 0 2713 -1 2827 -18 2865 -42 92 -55 111 -113 169 -67 68 -74 74 -124 98 -70 34 -119 42 -295 47 l-180 6 3 165 c4 188 -4 220 -69 253 -19 10 -33 22 -31 27 1 6 -7 10 -19 10 -11 0 -17 -4 -14 -10 3 -5 -10 -16 -29 -24 -20 -8 -45 -30 -57 -48 -19 -31 -20 -42 -15 -206 l5 -172 -162 2 -162 3 4 162 c4 198 -2 223 -65 253 -24 12 -42 26 -38 31 3 5 -2 9 -10 9 -9 0 -16 -6 -16 -14 0 -8 -13 -17 -30 -21 -18 -4 -37 -19 -50 -40 -20 -32 -21 -47 -19 -207 l2 -173 -1422 -3 -1421 -2 0 189 0 189 -32 26 c-18 14 -41 32 -50 41 -23 19 -38 19 -38 0 0 -9 -9 -15 -21 -15 -12 0 -34 -14 -50 -31 l-29 -31 0 -184 0 -184 -161 2 -161 3 -2 186 c-1 205 -3 211 -70 235 -17 7 -30 17 -29 23 2 6 -4 11 -12 11 -8 0 -14 -5 -12 -12 1 -6 -11 -15 -28 -21 -16 -5 -39 -21 -50 -35 -18 -25 -20 -43 -20 -207 l0 -180 -1420 0 -1419 0 -1 180 c0 164 -2 182 -20 207 -11 15 -32 30 -47 33 -16 4 -28 13 -28 21 0 8 -7 14 -15 14 -8 0 -15 -6 -15 -14 0 -8 -11 -17 -25 -20 -14 -4 -36 -17 -48 -29 -21 -21 -22 -30 -23 -207 l0 -185 -162 -3 -162 -2 0 183 c0 203 -4 217 -66 243 -19 8 -34 19 -34 24 0 6 -7 10 -16 10 -8 0 -12 -4 -9 -10z m48 -74 c11 -11 15 -77 21 -321 6 -270 5 -310 -9 -331 -20 -31 -65 -32 -91 -3 -18 20 -19 38 -16 321 3 251 6 305 19 324 17 27 54 32 76 10z m551 -8 c11 -18 15 -91 21 -320 6 -268 5 -299 -10 -322 -26 -39 -79 -37 -100 5 -15 27 -16 66 -10 322 8 315 12 337 60 337 15 0 30 -9 39 -22z m3051 14 c30 -21 35 -67 35 -348 0 -314 -4 -334 -59 -334 -58 0 -56 -9 -56 338 0 256 3 322 14 335 14 18 48 22 66 9z m557 -14 c12 -18 16 -86 22 -322 l7 -298 -22 -24 c-24 -26 -70 -32 -87 -11 -12 14 -14 79 -13 419 1 192 3 229 17 242 22 23 59 20 76 -6z m3060 5 c13 -15 17 -70 23 -320 6 -274 5 -304 -10 -327 -20 -30 -64 -35 -89 -10 -24 23 -24 618 0 652 18 26 55 29 76 5z m548 -5 c19 -21 20 -34 20 -327 0 -269 -2 -307 -17 -323 -20 -22 -61 -23 -85 -1 -17 15 -18 38 -18 321 0 300 0 306 22 329 27 29 51 29 78 1z m-7926 -437 c3 -4 -3 -16 -14 -26 -55 -50 -67 -149 -26 -214 38 -60 80 -85 151 -89 75 -4 116 16 163 78 32 42 34 48 30 112 -3 60 -7 71 -36 101 -18 18 -29 36 -26 40 10 10 304 9 304 -1 0 -5 -9 -17 -21 -28 -78 -71 -62 -208 33 -275 49 -35 139 -38 197 -6 94 51 122 193 54 271 -13 15 -23 31 -23 36 0 7 486 10 1415 10 778 0 1415 -4 1415 -8 0 -5 -10 -17 -21 -28 -25 -22 -59 -96 -59 -128 0 -23 29 -88 52 -117 39 -48 147 -74 211 -50 46 18 95 70 111 119 15 43 15 53 1 98 -8 28 -26 61 -40 74 -13 12 -22 27 -19 31 6 10 304 12 304 3 0 -4 -12 -21 -28 -38 -42 -48 -59 -108 -43 -154 32 -92 97 -142 186 -142 85 0 147 46 179 132 16 45 17 51 1 97 -9 27 -25 57 -35 66 -52 47 -109 45 1389 45 868 0 1412 -4 1416 -9 3 -6 0 -13 -7 -18 -79 -50 -83 -186 -7 -262 116 -115 319 -30 319 134 0 43 -32 113 -60 130 -29 18 15 25 151 25 82 0 149 -3 149 -7 0 -4 -15 -22 -32 -41 -31 -32 -33 -37 -33 -110 0 -65 4 -82 22 -105 47 -61 72 -72 153 -72 63 0 80 4 108 24 86 61 108 165 52 248 -16 24 -30 49 -30 55 0 7 58 9 183 6 l182 -4 69 -33 c120 -58 201 -158 225 -279 15 -72 15 -5526 1 -5603 -6 -29 -20 -74 -32 -98 -30 -62 -122 -151 -194 -186 l-59 -30 -649 0 -649 0 -30 55 c-16 30 -55 98 -87 151 -81 134 -96 184 -80 263 7 33 16 65 21 70 5 5 31 -7 61 -27 29 -21 60 -37 69 -37 8 0 21 -6 27 -12 9 -9 62 -15 160 -18 l147 -5 3 -25 c7 -65 39 -135 80 -177 24 -23 50 -43 58 -43 8 0 14 -4 14 -10 0 -16 63 -12 99 6 38 19 77 68 87 109 4 17 11 35 16 42 10 12 29 170 32 273 2 36 4 300 5 587 2 382 6 524 14 531 7 5 37 15 67 21 149 31 202 66 287 191 21 30 41 56 45 58 11 5 67 124 69 147 3 40 -1 54 -20 64 -13 7 -23 6 -37 -4 -10 -8 -50 -38 -89 -67 -38 -28 -72 -54 -75 -58 -9 -12 -109 -50 -129 -50 -25 0 -27 13 -5 31 18 15 43 61 55 103 13 44 -11 76 -56 76 -30 0 -39 -7 -81 -62 -27 -35 -57 -72 -68 -84 -12 -11 -34 -37 -49 -57 -15 -21 -32 -37 -37 -37 -5 0 -9 173 -9 394 0 332 -3 401 -16 432 -8 20 -15 47 -15 60 0 13 -6 38 -14 56 -8 18 -17 40 -20 48 -36 94 -190 246 -311 307 -162 82 -275 102 -425 77 -52 -8 -119 -19 -149 -24 -29 -5 -58 -13 -64 -19 -6 -6 -19 -11 -30 -11 -35 0 -122 -67 -135 -104 -13 -36 -12 -43 23 -171 30 -109 40 -173 27 -188 -17 -20 -42 -99 -42 -132 0 -22 -8 -35 -29 -49 -16 -11 -38 -36 -48 -55 -38 -73 -85 -141 -97 -141 -14 0 -71 -28 -104 -51 -12 -9 -38 -54 -58 -100 -19 -46 -39 -92 -44 -101 -6 -10 -10 -24 -10 -32 0 -8 -16 -45 -35 -82 -19 -37 -35 -79 -35 -94 0 -27 -33 -84 -80 -137 -14 -15 -48 -57 -75 -93 -27 -36 -77 -96 -112 -134 -35 -38 -63 -73 -63 -79 0 -12 -121 -174 -169 -227 -18 -19 -40 -51 -49 -70 -13 -29 -54 -90 -90 -135 -4 -5 -19 -28 -32 -50 -13 -22 -30 -46 -36 -52 -7 -7 -27 -43 -45 -80 -28 -57 -34 -79 -33 -133 1 -82 21 -126 91 -195 42 -41 62 -54 91 -56 66 -7 110 5 144 36 32 29 54 41 143 80 22 10 58 30 80 45 22 15 80 54 130 86 49 32 107 74 129 93 l38 35 19 -23 c11 -13 19 -33 19 -45 0 -13 3 -26 6 -29 4 -4 18 -33 31 -64 29 -68 33 -152 9 -188 -9 -13 -25 -52 -37 -87 -12 -35 -25 -67 -29 -73 -4 -5 -17 -39 -30 -75 -13 -36 -30 -76 -37 -90 -7 -14 -13 -30 -13 -36 0 -7 -7 -25 -15 -40 -8 -16 -15 -37 -15 -46 0 -9 -4 -19 -9 -22 -5 -3 -12 -22 -16 -42 -3 -20 -10 -44 -15 -53 -5 -9 -11 -24 -14 -33 -5 -17 -104 -18 -1768 -20 -1167 -2 -1765 0 -1770 7 -10 14 -1 267 11 313 6 20 14 81 20 134 5 53 14 105 19 115 5 10 9 49 10 86 1 38 7 87 13 110 6 23 15 78 20 122 18 167 20 176 46 186 13 5 38 9 55 9 16 0 60 7 96 16 37 8 87 20 112 26 25 6 68 14 97 18 28 5 66 13 85 18 35 11 95 24 223 46 105 19 214 44 246 57 33 13 54 69 50 137 -2 40 1 54 14 58 9 4 21 2 28 -5 6 -6 39 -11 73 -11 l62 0 36 49 c20 27 36 53 36 57 1 5 9 27 20 49 11 22 19 46 20 53 0 7 4 20 10 30 20 36 69 203 76 259 4 32 13 67 20 78 9 14 13 51 13 106 0 47 4 104 9 125 6 21 14 107 17 189 12 261 17 291 59 334 20 20 36 42 36 48 0 6 18 46 40 89 22 43 40 86 40 96 0 9 -17 44 -37 78 -56 90 -72 123 -73 146 -1 45 -86 134 -127 134 -26 -1 -56 -30 -72 -67 -20 -49 -33 -56 -72 -39 -42 17 -98 38 -164 59 -44 14 -52 15 -72 1 -34 -22 -30 -58 10 -81 17 -11 41 -22 52 -25 62 -19 119 -45 128 -59 7 -11 3 -23 -18 -45 -15 -16 -36 -47 -45 -68 -19 -42 -15 -69 24 -141 9 -16 16 -38 16 -47 0 -9 5 -20 10 -23 6 -3 10 -14 10 -25 0 -10 7 -20 15 -24 17 -6 20 -47 6 -74 -5 -9 -17 -37 -27 -62 -10 -25 -25 -63 -34 -85 -10 -22 -32 -80 -50 -130 -18 -49 -37 -94 -42 -99 -4 -6 -8 -17 -8 -25 0 -9 -6 -27 -13 -41 -7 -14 -23 -53 -36 -87 -13 -34 -29 -68 -37 -74 -9 -7 -14 -31 -14 -64 0 -86 -2 -87 -242 -86 -112 0 -218 4 -236 10 -18 5 -65 13 -105 16 -40 4 -91 13 -115 21 -24 8 -98 16 -165 18 -67 3 -138 9 -157 15 -19 6 -53 11 -76 11 -23 0 -61 7 -84 15 -23 8 -68 15 -99 16 -79 1 -105 10 -109 38 -2 13 1 28 7 34 6 6 11 21 11 34 0 22 60 73 87 73 8 0 21 4 31 10 9 5 40 19 67 31 28 12 60 30 73 42 35 32 32 54 -31 259 l-20 67 23 34 c13 19 36 43 52 53 16 11 28 28 28 41 0 33 18 38 22 6 l3 -28 417 -3 417 -2 3 -308 c2 -170 2 -315 0 -323 -2 -12 -35 -13 -194 -10 -226 4 -459 -7 -413 -20 44 -12 313 -50 450 -64 79 -7 108 0 163 44 20 17 46 29 57 28 18 -2 21 6 28 78 4 44 6 191 4 328 l-4 247 146 0 c80 0 152 4 159 8 16 11 -9 63 -35 74 -10 3 -74 7 -143 7 l-125 1 0 320 0 320 563 -2 564 -3 0 -315 0 -315 -184 -6 c-100 -3 -191 -9 -200 -13 -10 -5 -18 -16 -18 -25 0 -9 -5 -22 -12 -29 -7 -7 -10 -13 -7 -14 2 -1 98 -4 213 -7 l208 -6 0 -314 c-1 -172 -3 -316 -6 -318 -3 -3 -108 -5 -234 -4 -267 2 -282 -1 -282 -58 l0 -39 106 -7 c58 -4 175 -6 261 -4 l154 4 2 -318 c1 -174 0 -317 -3 -317 -3 0 -194 -1 -425 -3 -231 -2 -427 -6 -435 -10 -8 -4 -23 -19 -34 -33 -14 -20 -15 -29 -7 -37 9 -9 134 -12 457 -13 l446 -1 -1 -332 c0 -182 0 -334 -1 -338 0 -5 -253 -8 -563 -8 l-562 0 0 267 c0 271 -4 302 -37 282 -7 -5 -20 -7 -29 -6 -25 4 -29 -37 -29 -302 l0 -241 -322 0 c-309 0 -378 -4 -378 -24 0 -5 20 -16 44 -24 37 -13 94 -15 326 -12 276 4 283 4 329 28 l47 25 53 -25 53 -26 513 2 c490 1 553 4 570 30 9 16 71 13 84 -3 20 -24 70 -28 351 -27 363 2 428 10 353 44 -20 9 -121 12 -366 12 -218 0 -337 4 -337 10 -1 20 -1 641 0 655 0 13 45 15 357 12 421 -4 491 2 536 48 16 17 27 34 23 38 -4 4 -210 8 -458 9 -248 1 -453 4 -455 7 -2 2 -4 144 -4 316 l0 311 560 2 c368 1 561 -1 562 -8 0 -5 0 -77 0 -160 0 -82 3 -159 8 -170 7 -17 11 -15 35 24 45 70 56 115 56 222 l0 99 83 0 c92 0 120 12 131 56 10 38 -6 45 -104 43 -47 0 -91 -1 -97 0 -10 1 -13 72 -13 321 l0 320 293 0 c347 0 361 2 382 43 8 17 12 33 9 36 -3 3 -158 7 -345 9 l-339 3 0 319 0 319 516 1 c284 0 527 2 540 5 13 3 35 7 49 10 15 3 25 12 25 23 0 23 19 42 41 42 9 0 31 -17 47 -37 l30 -38 587 -5 586 -5 2 -318 c2 -276 0 -317 -13 -317 -8 -1 -114 0 -236 0 -121 0 -228 -2 -237 -6 -20 -7 -23 -59 -4 -71 6 -4 120 -10 252 -13 l239 -5 -3 -225 c-1 -124 1 -233 4 -242 12 -29 42 -21 54 13 6 19 11 107 11 211 0 184 -7 226 -47 270 -14 16 -13 21 16 67 l32 49 -3 281 c-3 280 -3 280 -27 302 -19 18 -22 29 -18 59 3 21 15 51 26 67 22 29 22 35 19 310 l-3 281 -24 26 c-15 16 -24 38 -24 57 0 22 7 37 24 50 l24 18 2 278 c2 279 -2 320 -34 330 -27 9 -35 -79 -32 -353 1 -151 0 -276 -3 -279 -3 -3 -192 -7 -419 -8 -314 -2 -422 -6 -447 -16 -29 -12 -41 -11 -84 3 -32 10 -85 16 -147 16 l-97 0 3 268 c3 196 0 282 -9 322 -13 53 -15 55 -50 58 l-36 3 -7 -96 c-4 -53 -6 -200 -3 -326 l4 -229 -145 -2 c-80 -1 -258 -2 -396 -2 -239 -1 -252 -2 -298 -24 -51 -24 -77 -23 -111 7 -12 11 -40 17 -90 18 -39 1 -74 2 -78 3 -5 0 -8 134 -9 298 -1 163 -4 308 -8 322 -6 21 -14 26 -47 28 -37 3 -39 1 -40 -25 0 -15 -1 -162 -2 -325 l-2 -298 -560 0 c-441 0 -560 3 -560 13 0 6 -1 153 -1 326 l-1 313 -41 -6 c-23 -4 -44 -9 -47 -12 -3 -3 -6 -146 -7 -317 l-1 -312 -564 -3 -564 -2 3 242 c2 134 0 279 -4 323 l-8 80 -36 3 c-35 3 -36 2 -42 -35 -4 -21 -7 -167 -7 -325 l0 -288 -147 -2 c-82 -1 -260 -2 -398 -2 -240 -1 -252 -2 -293 -24 -46 -24 -72 -22 -104 6 -11 9 -48 17 -100 21 l-83 6 4 261 c2 171 -1 280 -8 316 -11 53 -13 56 -48 61 -21 4 -39 4 -42 1 -4 -3 -7 -147 -8 -321 -1 -173 -3 -317 -6 -319 -4 -4 -362 -4 -767 0 -52 1 -147 -2 -210 -5 -63 -3 -120 -2 -126 3 -7 5 -9 75 -6 221 3 118 1 261 -3 318 l-7 104 -48 2 -48 2 0 -322 -1 -322 -595 -2 c-561 -3 -596 -2 -596 15 -1 9 -1 136 -1 282 1 265 -4 330 -26 337 -7 3 -19 -10 -28 -27 -15 -28 -16 -67 -13 -299 l3 -268 28 -40 c30 -43 29 -62 -7 -101 -20 -23 -21 -33 -21 -311 l0 -287 28 -33 c31 -37 34 -62 11 -81 -39 -33 -44 -73 -44 -350 l0 -267 27 -29 c34 -36 33 -72 -1 -116 l-27 -36 3 -275 c3 -268 4 -276 26 -306 29 -39 28 -72 -4 -127 l-26 -44 4 -274 c3 -266 4 -275 26 -305 28 -39 28 -61 -3 -107 l-25 -36 1 -280 c0 -158 4 -291 10 -305 9 -25 82 -103 97 -103 4 -1 152 -1 328 -2 243 0 330 3 358 13 45 16 41 32 -10 41 -53 9 -576 8 -644 -1 -30 -5 -59 -7 -65 -5 -7 3 -11 526 -5 684 0 3 210 5 467 5 351 0 473 3 489 12 22 13 41 60 29 72 -4 3 -225 7 -492 8 -267 1 -487 4 -490 6 -2 3 -4 145 -4 317 l-1 312 599 0 598 0 3 -46 c2 -25 8 -46 13 -46 16 0 69 57 69 74 0 8 -12 21 -27 28 -33 16 -41 49 -17 69 15 12 18 12 28 -4 26 -43 34 -49 68 -50 23 -1 61 12 103 33 61 31 65 35 43 43 -12 5 -58 7 -102 5 l-79 -3 -1 323 -1 323 70 -1 c190 -4 204 0 180 47 -19 38 -43 45 -149 43 -45 -1 -85 -1 -91 -1 -6 1 -10 115 -10 321 l0 320 210 0 c146 1 216 4 231 13 33 19 97 78 91 84 -3 3 -124 6 -268 7 l-261 1 -2 318 -1 317 558 -2 559 -3 1 -287 c1 -176 6 -291 12 -296 6 -6 24 -13 42 -17 29 -6 32 -4 43 30 8 26 11 115 9 303 l-4 267 562 3 562 2 3 -311 c2 -171 1 -314 -2 -319 -3 -4 -245 -8 -537 -9 -293 -1 -539 -4 -547 -7 -17 -7 -9 -47 15 -73 20 -21 26 -21 544 -21 l525 0 0 -320 0 -319 -442 -3 c-244 -2 -452 1 -463 6 -11 5 -39 24 -62 42 -31 26 -43 43 -48 73 -3 22 -21 62 -38 89 -63 99 -90 137 -103 145 -16 9 -19 43 -4 52 19 12 50 84 50 118 0 80 -50 170 -112 203 -49 26 -131 14 -188 -27 -12 -9 -26 -4 -62 20 -41 27 -54 31 -114 31 -100 -1 -179 -50 -258 -159 -45 -62 -48 -69 -42 -114 5 -45 3 -48 -21 -58 -77 -29 -122 -89 -149 -198 -15 -63 -16 -81 -5 -125 7 -28 15 -70 18 -94 3 -23 16 -62 29 -85 13 -23 29 -53 35 -67 5 -14 21 -39 35 -57 13 -17 24 -35 24 -40 0 -7 49 -68 125 -154 22 -25 23 -34 22 -155 l-2 -129 -50 -3 c-27 -2 -57 -9 -65 -16 -8 -7 -37 -21 -65 -31 -27 -10 -57 -23 -65 -30 -8 -7 -22 -15 -30 -19 -8 -3 -28 -15 -45 -26 -16 -11 -37 -23 -45 -27 -8 -3 -19 -12 -23 -20 -4 -7 -14 -13 -20 -13 -7 0 -44 -20 -81 -45 -38 -25 -71 -45 -74 -45 -7 0 -86 -63 -100 -80 -17 -21 -52 -99 -52 -117 0 -9 -7 -36 -14 -62 -8 -25 -22 -71 -30 -101 -8 -30 -28 -100 -45 -155 -17 -55 -32 -116 -34 -135 -3 -19 -9 -48 -15 -65 -12 -32 -31 -102 -88 -312 -8 -32 -22 -79 -30 -104 -8 -26 -14 -57 -14 -68 0 -12 -5 -31 -11 -42 -6 -11 -17 -44 -25 -72 -40 -142 -40 -146 21 -172 58 -27 66 -42 50 -96 -19 -64 -35 -180 -35 -250 l0 -60 -457 3 -458 3 -65 33 c-113 58 -184 142 -221 264 -18 61 -19 138 -19 2812 0 3002 -4 2799 56 2915 49 94 174 187 274 204 49 8 409 7 414 -2z m566 -135 c0 -49 5 -68 20 -86 11 -13 20 -27 20 -31 0 -4 26 -11 58 -15 l57 -8 -45 -8 c-79 -15 -140 35 -147 121 -5 50 11 106 27 96 5 -3 10 -34 10 -69z m-540 -16 c1 -77 28 -109 101 -119 l54 -7 -54 -5 c-36 -3 -59 0 -67 8 -7 7 -15 13 -18 13 -15 0 -43 39 -54 76 -10 35 -10 48 4 79 20 49 33 32 34 -45z m7785 -82 c19 -25 49 -37 104 -39 14 -1 4 -5 -24 -10 -41 -7 -55 -5 -81 12 -69 42 -99 150 -51 184 l22 16 5 -69 c4 -45 13 -77 25 -94z m-4185 101 c0 -45 16 -89 47 -128 1 -2 31 -7 65 -11 l63 -7 -67 -2 c-40 0 -68 3 -68 9 0 6 -6 10 -13 10 -21 0 -50 42 -56 80 -9 53 -2 100 15 100 10 0 14 -13 14 -51z m240 -15 c0 -41 -6 -62 -22 -84 -12 -17 -25 -30 -30 -30 -14 0 -9 27 7 40 10 8 15 31 15 70 0 31 3 60 6 63 15 15 24 -8 24 -59z m304 50 c3 -9 6 -32 6 -51 0 -19 10 -53 22 -74 19 -35 26 -39 77 -45 l56 -8 -45 -8 c-57 -10 -73 -5 -115 39 -33 34 -35 41 -35 100 0 47 3 63 14 63 8 0 17 -7 20 -16z m3064 -38 c6 -89 48 -134 127 -137 40 -2 40 -2 -10 -9 -40 -6 -56 -4 -80 11 -50 30 -75 72 -75 127 0 27 3 52 7 56 16 15 28 -4 31 -48z m238 -35 c-5 -38 -13 -58 -29 -72 -12 -10 -25 -18 -29 -19 -14 0 -8 28 7 34 11 4 15 22 15 69 0 71 8 87 28 60 10 -13 12 -34 8 -72z m-7208 32 c3 -42 -28 -106 -57 -118 -24 -10 -24 3 0 36 13 18 24 45 25 59 3 65 5 71 17 68 6 -3 13 -23 15 -45z m542 -14 c0 -33 -5 -51 -14 -55 -8 -3 -16 -14 -19 -25 -3 -10 -10 -19 -16 -19 -16 0 -14 16 4 34 9 9 15 33 15 64 0 27 3 52 6 55 15 14 24 -7 24 -54z m3598 -1 c-2 -38 -8 -63 -15 -66 -10 -3 -13 13 -13 56 0 32 3 62 7 65 17 18 24 2 21 -55z m3608 -26 c-13 -43 -51 -89 -60 -73 -4 5 0 14 9 18 9 6 17 31 22 72 6 63 7 64 24 43 14 -19 15 -27 5 -60z m-3636 -60 c0 -13 -12 -22 -22 -16 -10 6 -1 24 13 24 5 0 9 -4 9 -8z m-3510 -1707 c15 -18 5 -35 -21 -35 -14 0 -19 7 -19 25 0 28 21 33 40 10z m1218 -9 c2 -10 -1 -23 -7 -29 -14 -14 -41 9 -41 35 0 26 43 21 48 -6z m1207 -7 c-11 -17 -35 -9 -35 11 0 18 3 19 20 10 11 -6 18 -15 15 -21z m1238 0 c-4 -13 -12 -19 -27 -17 -30 4 -33 35 -4 40 32 5 37 1 31 -23z m2437 11 c0 -13 -7 -20 -20 -20 -19 0 -27 20 -13 33 13 14 33 6 33 -13z m-1217 4 c9 -10 -4 -34 -19 -34 -8 0 -14 9 -14 20 0 19 19 27 33 14z m-5701 -40 c70 -18 213 -14 281 8 32 10 42 9 60 -2 16 -11 72 -16 210 -20 l189 -5 -1 -315 0 -315 -433 -1 c-268 -1 -455 -6 -492 -13 -32 -6 -63 -8 -69 -4 -6 4 -53 9 -105 12 l-93 6 -1 315 0 315 168 5 c107 3 176 9 189 17 26 16 22 16 97 -3z m4410 -333 l-1 -315 -561 0 -562 -1 -2 317 -1 318 563 -3 564 -2 0 -314z m1218 312 c0 -5 1 -147 1 -318 l0 -310 -561 0 -562 0 1 310 c0 171 1 313 1 317 0 9 1120 10 1120 1z m1223 -313 l0 -315 -562 -2 c-572 -3 -569 -3 -561 32 1 6 1 144 1 308 l-1 297 561 -2 561 -3 1 -315z m1299 0 l-1 -315 -597 -2 c-426 -2 -600 0 -605 8 -3 6 -2 27 3 48 5 20 8 155 7 301 -1 146 -1 268 0 273 0 4 269 6 597 5 l596 -3 0 -315z m-7332 -376 c0 -17 -32 -18 -48 -2 -17 17 -15 26 6 30 21 5 42 -9 42 -28z m2437 -8 c-8 -20 -36 -21 -43 -1 -4 8 0 22 7 31 11 13 14 13 27 0 8 -8 12 -22 9 -30z m1233 9 c0 -21 -27 -30 -45 -15 -19 16 -10 30 21 30 15 0 24 -6 24 -15z m1200 0 c0 -8 -9 -15 -20 -15 -20 0 -26 11 -13 23 12 13 33 7 33 -8z m-4949 -363 c1 -173 -1 -316 -4 -318 -3 -3 -1027 -7 -1182 -4 -7 0 -9 111 -8 317 1 175 3 319 3 321 0 1 268 1 595 0 l596 -3 0 -313z m4889 308 c0 -5 0 -145 0 -310 0 -165 0 -304 0 -310 0 -12 -1120 -14 -1120 -2 -1 13 -1 617 0 625 0 11 1120 9 1120 -3z m-3818 -13 c84 -2 89 -3 119 -33 29 -29 30 -33 20 -71 -9 -32 -28 -55 -87 -107 -41 -36 -81 -66 -88 -66 -8 0 -21 -12 -31 -26 -9 -14 -49 -61 -88 -103 -116 -123 -127 -144 -148 -281 -16 -104 -14 -128 16 -156 14 -13 30 -24 35 -24 4 0 10 -6 13 -12 2 -7 8 -10 12 -6 8 8 -31 48 -47 48 -4 0 -8 23 -8 50 0 36 4 52 15 56 11 4 15 21 15 59 0 38 4 55 15 59 8 3 15 14 15 25 0 12 50 71 125 148 68 70 131 136 140 146 8 9 20 17 25 17 14 0 25 -30 14 -39 -5 -3 -22 -24 -37 -47 -15 -22 -70 -84 -122 -137 -52 -54 -95 -105 -95 -115 0 -10 -8 -28 -17 -42 -13 -18 -17 -46 -18 -117 0 -51 3 -93 8 -93 4 0 15 9 24 20 23 27 49 25 69 -5 37 -57 -9 -99 -125 -115 -68 -9 -107 11 -153 79 -17 25 -40 56 -51 69 -21 23 -49 67 -87 135 -38 68 -56 196 -39 268 5 20 40 78 78 128 39 52 74 111 81 135 15 55 90 142 133 156 18 5 66 7 107 4 41 -3 114 -6 162 -7z m2045 -189 c28 -31 43 -62 43 -88 0 -18 46 -104 93 -173 10 -14 6 -28 -21 -80 -18 -35 -53 -95 -79 -133 l-46 -69 -8 -120 c-20 -297 -54 -627 -69 -663 -6 -13 -10 -31 -10 -42 0 -19 -62 -217 -79 -255 -6 -11 -13 -31 -17 -44 -12 -44 -59 -112 -81 -117 -12 -3 -45 -2 -75 3 l-53 8 -2 115 c-1 63 -7 156 -13 207 -14 132 -13 168 11 221 11 26 27 63 35 82 8 19 19 43 24 52 6 10 10 23 10 30 0 7 6 24 13 38 7 14 24 54 37 90 12 36 27 69 32 75 4 5 8 16 8 25 1 8 9 33 20 55 11 22 19 47 20 56 0 8 4 19 8 25 5 5 17 32 27 59 9 28 25 65 33 84 15 31 14 36 -3 65 -41 68 -95 182 -95 202 0 34 57 129 123 204 22 25 44 56 50 70 20 45 35 49 64 18z m3104 2 c24 -14 24 -30 -2 -74 -24 -41 -31 -125 -17 -217 5 -33 7 -64 3 -67 -14 -14 -43 40 -60 110 -18 74 -40 120 -82 171 -13 16 -23 35 -23 43 0 34 134 59 181 34z m90 -120 c17 -140 23 -171 35 -181 8 -6 14 -20 14 -31 0 -10 40 -59 93 -111 50 -51 102 -106 115 -122 68 -89 122 -169 122 -181 0 -8 4 -14 10 -14 5 0 12 -11 16 -25 3 -13 12 -29 20 -36 8 -6 14 -21 14 -33 0 -12 5 -27 11 -33 6 -6 15 -29 20 -50 4 -21 13 -61 20 -90 14 -65 5 -126 -19 -121 -13 2 -18 16 -20 62 -2 33 -10 68 -18 80 -7 11 -14 34 -14 51 0 16 -7 39 -15 49 -8 11 -15 28 -15 38 0 10 -4 18 -9 18 -5 0 -12 12 -16 27 -3 15 -20 47 -36 71 -16 23 -29 45 -29 48 0 3 -6 11 -12 19 -7 7 -24 28 -38 46 -27 35 -118 128 -166 169 -38 33 -84 91 -84 106 0 6 -7 17 -15 24 -8 7 -15 24 -15 39 0 14 -7 35 -15 45 -11 14 -15 46 -15 109 l0 88 28 -3 c25 -3 28 -7 33 -58z m158 23 c64 -38 104 -72 151 -128 42 -51 80 -110 80 -126 0 -8 10 -32 21 -54 21 -39 35 -165 23 -207 -5 -18 -34 -26 -34 -9 0 5 -60 70 -134 145 -74 75 -144 155 -156 178 -27 52 -60 166 -60 208 0 42 29 40 109 -7z m-5165 -80 c37 -58 71 -123 81 -158 14 -50 25 -66 58 -90 23 -17 49 -33 59 -37 28 -11 22 -29 -27 -83 -38 -41 -45 -55 -41 -80 5 -38 25 -114 36 -140 5 -11 14 -44 20 -74 12 -63 6 -74 -54 -101 -84 -38 -139 -60 -148 -60 -6 0 -23 -9 -39 -21 -27 -19 -29 -25 -29 -89 0 -38 -4 -71 -9 -74 -5 -3 -37 3 -71 14 -35 11 -71 20 -82 20 -11 0 -43 6 -71 14 -29 8 -95 17 -147 21 -52 3 -99 10 -105 15 -6 5 -9 46 -9 97 l2 88 38 3 c55 3 174 31 207 48 16 8 34 14 41 14 7 0 35 20 62 45 58 54 82 55 106 5 26 -52 87 -112 112 -108 36 5 31 37 -13 75 -23 19 -52 56 -64 82 -21 44 -24 46 -64 46 -23 0 -43 2 -45 5 -22 27 -68 115 -68 130 0 28 41 35 83 15 29 -14 40 -14 59 -4 57 30 128 139 128 197 0 44 -39 91 -101 123 -45 22 -52 33 -51 70 1 26 53 88 74 89 4 0 36 -44 72 -97z m4718 -10 c-2 -57 1 -91 12 -118 9 -21 16 -47 16 -59 1 -39 102 -148 225 -243 66 -51 128 -92 138 -92 9 -1 30 13 45 29 26 29 28 30 50 15 29 -21 30 -80 2 -159 -39 -115 -116 -129 -151 -28 -6 18 -17 32 -23 32 -7 0 -32 -22 -54 -49 -66 -78 -149 -127 -307 -181 -66 -22 -164 -26 -198 -8 -12 6 -29 21 -37 32 -19 26 -39 116 -40 177 0 52 24 219 39 264 5 17 24 77 42 135 18 58 48 130 66 160 38 63 150 183 167 177 7 -3 10 -32 8 -84z m-4849 -101 c-10 -18 -21 -32 -25 -32 -5 0 -8 -6 -8 -12 0 -27 -180 -218 -205 -218 -8 0 -15 2 -15 4 0 2 -3 11 -6 19 -3 9 15 35 48 68 59 59 148 162 161 185 11 19 49 34 60 25 4 -5 0 -22 -10 -39z m2556 -171 c17 -11 7 -41 -13 -41 -7 0 -16 11 -18 25 -5 26 6 32 31 16z m-3659 -16 c0 -16 -27 -32 -37 -22 -3 4 -3 13 0 22 8 20 37 20 37 0z m2443 -5 c-3 -11 -12 -20 -19 -20 -8 0 -14 9 -14 20 0 13 7 20 19 20 14 0 18 -5 14 -20z m2440 0 c3 -12 0 -20 -8 -20 -16 0 -37 25 -28 33 13 13 31 7 36 -13z m-4953 -53 c3 -82 0 -621 -3 -624 -6 -5 -1179 -5 -1184 1 -3 3 -6 545 -3 629 0 4 268 7 595 7 460 -1 595 -3 595 -13z m4892 -295 c2 -169 0 -313 -3 -320 -4 -11 -110 -13 -559 -12 -305 0 -556 2 -558 5 -3 2 -5 555 -2 627 0 4 252 8 560 8 l559 0 3 -308z m1713 67 c9 -16 19 -53 22 -82 3 -29 11 -58 17 -66 7 -9 12 -98 14 -257 3 -205 1 -247 -12 -273 -9 -16 -16 -41 -16 -55 0 -30 -16 -42 -35 -26 -20 16 -19 116 0 150 18 32 22 349 4 367 -6 6 -13 51 -16 100 -3 48 -9 103 -15 120 -17 56 11 73 37 22z m-1125 -109 c0 -6 -13 -32 -30 -58 -16 -27 -30 -58 -30 -70 0 -30 43 -76 115 -124 35 -23 62 -45 59 -49 -2 -4 -28 -13 -57 -19 -41 -8 -65 -22 -112 -64 -53 -47 -69 -71 -137 -207 -42 -85 -87 -176 -99 -204 -12 -27 -31 -72 -44 -100 -46 -103 -95 -249 -95 -282 0 -7 -4 -21 -9 -31 -5 -9 -17 -39 -26 -67 -10 -27 -23 -63 -31 -80 -7 -16 -22 -52 -34 -80 -11 -27 -27 -62 -36 -77 -8 -15 -27 -50 -42 -78 -52 -98 -146 -180 -207 -180 -82 0 -165 104 -165 206 0 60 36 125 200 364 40 58 85 120 101 138 16 18 29 36 29 40 0 4 10 18 23 32 12 14 40 49 61 79 21 30 42 59 47 65 5 6 47 61 95 121 47 61 93 119 102 130 63 74 112 144 117 168 4 15 11 30 16 33 5 3 9 12 9 21 0 8 6 29 14 46 23 55 43 110 61 172 21 74 43 123 68 152 19 21 37 22 37 3z m782 -141 c-2 -24 -8 -52 -13 -61 -8 -16 -20 -103 -36 -269 -6 -66 7 -96 47 -110 49 -18 45 -37 -17 -98 -130 -126 -167 -145 -289 -145 -81 -1 -95 2 -128 24 -53 37 -71 97 -52 178 19 81 22 85 63 79 54 -9 115 22 135 69 16 39 37 130 45 194 9 72 12 78 45 85 43 10 83 30 137 72 25 18 49 32 55 30 6 -2 10 -23 8 -48z m-652 -1 c0 -13 -17 -9 -30 7 -6 8 -8 20 -4 26 5 9 11 7 21 -6 7 -11 13 -22 13 -27z m918 -16 c-1 -15 1 -32 4 -37 3 -6 8 -75 9 -155 l3 -145 -52 -19 c-69 -25 -116 -16 -143 27 -22 35 -22 86 0 236 15 102 33 121 118 121 63 0 63 0 61 -28z m-788 -54 c0 -19 -42 -58 -61 -58 -17 0 -17 2 -1 30 20 34 62 54 62 28z m1365 -35 c-3 -15 -19 -42 -35 -60 -31 -35 -51 -116 -32 -135 7 -7 34 -3 90 16 44 14 86 26 95 26 9 0 48 29 86 65 69 65 91 78 91 51 0 -36 -145 -221 -198 -253 -44 -27 -139 -59 -205 -68 -33 -5 -51 -14 -60 -29 -9 -16 -13 -181 -18 -646 -4 -437 -9 -643 -18 -685 -20 -96 -45 -169 -63 -187 -42 -42 -131 -1 -166 74 -22 46 -47 171 -39 186 3 4 11 46 16 93 6 46 15 104 21 129 5 25 14 77 20 115 14 85 34 201 55 315 34 178 47 257 55 325 4 39 13 86 19 105 6 19 11 48 11 65 0 16 7 48 15 70 8 22 14 76 15 120 l0 80 66 65 c36 35 86 92 112 127 49 67 79 83 67 36z m-1177 -1 c2 -7 -3 -28 -12 -46 -9 -20 -16 -60 -16 -96 0 -99 -2 -100 -133 -100 -120 0 -159 -11 -216 -63 -14 -13 -44 -35 -67 -49 -23 -15 -63 -53 -90 -85 -106 -126 -157 -173 -171 -160 -2 3 0 13 5 24 29 57 43 85 80 153 22 42 54 102 70 135 33 64 78 112 127 137 61 31 122 58 132 58 22 0 80 35 113 69 34 34 39 36 105 36 47 0 70 -4 73 -13z m-2213 -102 c-6 -9 -9 -9 -16 1 -10 17 0 34 13 21 6 -6 7 -16 3 -22z m1240 10 c0 -8 -10 -16 -22 -18 -22 -3 -32 16 -16 32 12 11 38 2 38 -14z m-4090 -17 c55 -8 123 -19 150 -24 110 -20 177 -27 213 -22 28 4 51 -1 83 -17 50 -25 187 -46 379 -59 118 -8 223 -24 370 -57 36 -7 86 -17 113 -20 53 -8 61 -15 53 -47 -6 -25 -142 -132 -195 -154 -20 -8 -43 -21 -51 -28 -35 -31 -227 -113 -340 -146 -46 -13 -134 -91 -127 -113 6 -18 27 -18 27 1 1 24 60 53 109 53 22 0 44 6 51 15 7 8 27 15 45 15 18 0 38 7 45 15 7 8 25 15 40 15 15 0 33 7 40 15 7 8 23 15 35 15 13 0 25 7 29 15 3 8 16 15 30 15 13 0 26 7 30 15 3 8 14 15 25 15 11 0 23 5 26 11 4 5 17 14 28 20 33 14 61 33 70 47 4 6 12 12 18 12 10 0 24 10 60 43 10 9 21 17 24 17 3 0 49 43 102 95 53 52 102 95 110 95 58 0 -64 -152 -199 -249 -27 -19 -48 -38 -48 -42 0 -3 -8 -9 -17 -13 -25 -8 -57 -29 -66 -43 -4 -7 -17 -13 -27 -13 -11 0 -20 -4 -20 -9 0 -5 -10 -13 -22 -17 -12 -3 -28 -13 -36 -20 -7 -8 -20 -14 -28 -14 -9 0 -22 -7 -30 -15 -9 -8 -24 -15 -33 -15 -10 0 -24 -7 -31 -15 -7 -8 -23 -15 -37 -15 -13 0 -31 -7 -39 -15 -9 -8 -28 -15 -43 -15 -16 0 -34 -7 -41 -15 -7 -8 -29 -15 -50 -15 -21 0 -43 -7 -50 -15 -7 -9 -29 -15 -51 -15 -45 0 -51 -16 -11 -31 46 -18 161 4 269 52 24 11 47 19 52 19 23 0 239 114 305 162 21 15 45 28 53 28 7 0 16 7 19 15 4 8 10 15 14 15 5 0 49 39 99 88 168 161 178 164 199 57 7 -39 15 -90 16 -115 2 -25 7 -77 11 -117 7 -64 5 -75 -14 -107 -42 -67 -105 -94 -241 -101 -25 -2 -56 -8 -70 -13 -14 -6 -54 -16 -90 -21 -36 -6 -96 -17 -135 -26 -38 -8 -80 -15 -93 -15 -12 0 -30 -4 -40 -9 -31 -17 -196 -48 -262 -50 -36 -1 -81 -6 -100 -11 -19 -5 -46 -12 -60 -15 -102 -26 -173 -51 -187 -67 -15 -17 -13 -18 50 -18 36 0 78 5 94 11 15 6 64 15 108 19 44 5 93 12 108 16 27 6 28 5 25 -22 -2 -22 -9 -30 -28 -32 -22 -3 -160 -129 -273 -249 -40 -43 -77 -45 -77 -4 0 20 8 34 28 47 15 10 32 22 38 28 6 6 42 38 78 71 71 63 104 106 68 86 -10 -5 -43 -13 -73 -17 -30 -4 -66 -13 -81 -20 -15 -8 -36 -14 -48 -14 -23 0 -24 -3 -8 -29 9 -15 7 -27 -10 -63 -12 -24 -22 -58 -22 -74 0 -32 37 -74 66 -74 32 0 88 24 133 58 25 18 49 31 55 29 9 -3 10 -247 1 -342 -8 -75 -27 -200 -32 -209 -9 -13 -8 -260 1 -274 4 -6 2 -31 -5 -54 -6 -24 -12 -116 -13 -204 -1 -144 -3 -164 -20 -183 -21 -23 -89 -47 -176 -61 -30 -6 -91 -21 -135 -34 -137 -41 -226 -50 -382 -37 -201 17 -332 42 -368 70 -5 5 -27 14 -48 21 -47 15 -83 61 -92 120 -4 25 -14 58 -22 73 -10 21 -15 79 -18 220 -2 145 -7 206 -20 247 -10 31 -19 99 -21 155 -2 55 -6 118 -10 140 -3 22 -5 60 -5 85 0 25 -9 89 -20 144 -10 54 -19 130 -19 168 0 38 -9 122 -19 186 -11 65 -27 162 -36 217 -8 54 -24 114 -34 131 -28 48 -36 131 -17 176 9 21 16 46 16 58 0 33 56 112 105 150 25 19 64 49 86 67 22 17 49 35 62 39 12 3 31 14 42 24 11 10 37 23 58 30 21 7 41 18 43 25 3 7 42 26 87 43 45 17 100 37 122 45 22 9 54 13 70 11 17 -3 75 -12 130 -21z m5905 -53 c0 -19 -20 -27 -33 -13 -8 7 11 33 24 33 5 0 9 -9 9 -20z m-1030 -138 c0 -10 -5 -23 -11 -29 -6 -6 -14 -43 -17 -82 -4 -59 -1 -77 18 -113 25 -48 38 -60 100 -91 36 -17 62 -22 130 -22 76 0 92 4 151 33 84 42 164 113 209 186 27 44 40 56 60 56 27 -1 121 -31 142 -46 7 -5 25 -16 40 -23 42 -21 40 -37 -5 -67 -108 -71 -223 -245 -292 -439 -9 -27 -21 -59 -26 -70 -13 -31 -39 -144 -39 -168 0 -12 9 -33 19 -46 17 -22 24 -23 71 -18 29 4 58 11 65 17 8 7 15 7 19 1 7 -11 -45 -75 -134 -163 -89 -88 -123 -132 -162 -209 -28 -56 -32 -75 -32 -144 -1 -87 7 -110 74 -220 35 -57 89 -154 135 -240 12 -22 32 -69 45 -105 13 -36 27 -69 30 -75 4 -5 11 -26 15 -45 4 -19 11 -41 16 -50 16 -31 41 -207 36 -255 -7 -70 -33 -209 -52 -280 -24 -88 -42 -154 -59 -210 -28 -99 -143 -436 -167 -490 -5 -11 -18 -49 -30 -85 -12 -36 -25 -69 -30 -75 -5 -5 -9 -16 -9 -25 -1 -8 -9 -33 -20 -55 -11 -22 -19 -47 -20 -55 0 -9 -4 -20 -9 -25 -4 -6 -26 -59 -47 -118 -29 -81 -43 -107 -54 -103 -8 3 -60 21 -114 40 -55 19 -120 40 -145 46 -25 7 -73 18 -106 27 -33 8 -85 19 -115 24 -30 5 -86 15 -125 22 -38 6 -152 12 -253 12 l-182 0 0 26 c0 14 4 39 10 55 5 16 14 65 19 109 15 125 31 236 42 285 5 25 14 77 18 115 11 89 29 197 42 255 5 25 13 74 18 110 9 62 22 136 56 323 33 184 52 280 92 457 8 36 18 83 22 105 8 40 33 122 50 160 5 11 26 67 47 125 20 58 40 110 44 115 4 6 15 33 25 60 21 59 52 133 65 157 6 10 10 23 10 30 0 7 7 27 16 43 20 37 23 123 7 156 -7 13 -21 47 -33 74 -12 28 -25 59 -30 70 -19 40 -39 112 -55 196 -16 81 -16 91 -1 160 21 95 39 144 89 249 38 81 134 248 160 280 19 23 65 51 111 65 55 18 56 18 56 -3z m-277 -149 c-7 -3 -13 -13 -13 -23 0 -10 -5 -22 -11 -25 -5 -4 -15 -17 -20 -28 -5 -12 -18 -35 -28 -52 -32 -50 -91 -171 -91 -186 0 -8 -8 -27 -17 -44 -21 -38 -25 -267 -6 -302 17 -29 3 -44 -117 -124 -52 -35 -99 -67 -105 -72 -97 -73 -143 -102 -150 -95 -4 4 12 37 34 73 18 28 92 175 111 220 5 11 18 52 31 90 12 39 25 77 29 85 4 9 11 36 15 60 4 25 11 50 15 55 4 6 11 26 15 45 5 27 33 61 123 150 65 63 132 132 150 153 19 21 37 35 40 31 4 -4 1 -9 -5 -11z m1201 -85 c8 -18 16 -44 19 -58 3 -14 10 -38 15 -55 32 -91 35 -115 24 -167 -13 -59 -27 -127 -47 -238 -36 -200 -47 -268 -51 -305 -3 -22 -9 -78 -14 -124 -14 -120 -43 -147 -56 -50 -4 27 -11 52 -15 55 -5 3 -9 17 -9 32 0 15 -6 47 -14 72 -32 99 -46 158 -46 188 0 17 -4 41 -10 54 -5 13 -19 58 -31 101 -23 77 -39 93 -65 67 -12 -12 5 -80 34 -137 16 -31 15 -34 -3 -51 -28 -26 -101 -56 -119 -49 -20 8 -21 63 -3 114 8 21 22 63 32 93 47 146 151 325 245 422 36 37 73 68 82 68 10 0 24 -15 32 -32z m-6633 -293 c3 -44 10 -93 17 -108 7 -16 12 -73 12 -128 0 -55 5 -110 11 -121 6 -11 13 -66 16 -122 3 -55 12 -113 19 -128 9 -17 14 -63 14 -125 1 -66 5 -106 15 -123 20 -35 21 -206 1 -213 -21 -8 -36 14 -36 54 0 20 -7 50 -15 65 -10 20 -15 59 -15 125 0 63 -5 109 -15 132 -10 24 -15 70 -15 133 0 92 -1 98 -30 134 -16 21 -30 47 -30 58 0 11 -7 23 -16 26 -11 4 -14 16 -12 43 4 47 25 54 39 14 6 -17 15 -29 19 -26 11 7 2 81 -16 128 -15 39 -20 247 -7 261 4 4 14 5 23 4 11 -3 16 -22 21 -83z m3717 -4 c-4 -22 -52 -21 -56 1 -2 9 4 18 15 20 27 6 44 -3 41 -21z m-3824 -436 c33 -30 46 -64 46 -119 0 -23 4 -46 8 -51 27 -30 42 -314 18 -334 -14 -12 -73 -5 -82 10 -3 5 -15 9 -28 9 -12 0 -31 7 -42 15 -10 8 -26 15 -35 15 -9 0 -27 8 -39 18 -31 25 -31 83 2 152 14 30 29 73 33 95 4 22 18 74 32 115 13 41 26 81 29 88 6 19 29 14 58 -13z m6477 -146 c29 -54 57 -119 62 -146 5 -27 2 -35 -17 -48 -44 -29 -186 6 -203 51 -7 18 38 83 89 130 40 36 56 39 69 13z m-6570 -426 c47 -35 138 -71 213 -84 27 -4 55 -14 62 -21 31 -31 48 -310 24 -382 -17 -51 -47 -184 -85 -376 -9 -41 -22 -106 -30 -145 -7 -38 -21 -108 -30 -155 -9 -47 -23 -119 -31 -160 -8 -41 -20 -106 -25 -145 -6 -38 -16 -76 -22 -83 -6 -8 -10 -52 -8 -112 2 -96 2 -99 -34 -167 -20 -37 -48 -82 -61 -100 -13 -17 -24 -38 -24 -45 0 -7 33 -47 74 -88 41 -41 72 -78 70 -82 -11 -18 -49 -6 -89 26 -26 22 -54 60 -76 103 l-34 68 0 150 c0 95 5 163 13 184 9 26 12 197 12 716 0 769 8 915 50 915 4 0 18 -8 31 -17z m439 -868 c11 -14 55 -36 125 -65 51 -21 127 -40 195 -50 36 -5 94 -14 130 -19 81 -13 281 -13 338 -1 80 18 117 28 147 38 36 12 104 30 160 42 22 4 56 13 75 20 145 52 150 52 150 3 0 -21 5 -92 10 -158 12 -151 12 -1137 0 -1470 -17 -453 -29 -718 -40 -840 -6 -66 -15 -174 -21 -240 -9 -117 -23 -226 -54 -430 -8 -55 -19 -140 -25 -190 -5 -49 -12 -99 -15 -110 -6 -22 -32 -250 -44 -386 -5 -48 -13 -122 -19 -165 -13 -91 -32 -309 -39 -434 -6 -98 -26 -136 -93 -170 -75 -38 -244 -16 -264 35 -3 9 -6 91 -6 182 0 91 -5 229 -10 307 -6 77 -15 258 -20 401 -23 629 -31 797 -41 905 -5 63 -12 201 -15 305 -3 105 -9 231 -15 280 -5 50 -14 160 -19 245 -6 85 -17 238 -24 340 -8 102 -19 257 -25 345 -6 88 -16 199 -21 246 -6 48 -10 106 -10 130 0 42 -3 46 -137 181 -131 131 -170 157 -188 129 -11 -19 21 -59 127 -155 61 -55 117 -111 126 -124 12 -18 19 -75 29 -216 7 -105 19 -285 28 -401 73 -973 70 -901 51 -985 -9 -41 -22 -95 -28 -120 -11 -48 -29 -129 -54 -245 -8 -38 -21 -100 -29 -137 -8 -38 -22 -98 -30 -135 -8 -38 -21 -99 -29 -138 -8 -38 -22 -106 -31 -150 -10 -44 -23 -110 -31 -147 -8 -38 -21 -99 -29 -138 -33 -152 -44 -208 -59 -280 -9 -41 -22 -106 -31 -145 -8 -38 -19 -95 -25 -125 -6 -30 -15 -71 -20 -90 -5 -19 -12 -56 -15 -82 -9 -69 -44 -88 -165 -91 l-92 -2 -34 38 c-39 42 -38 23 -14 232 5 44 12 141 15 215 3 74 10 173 15 220 6 47 15 166 21 265 12 208 30 469 56 810 21 286 22 426 6 1160 -22 989 -19 1405 8 1405 5 0 28 -12 52 -27 72 -46 204 -43 165 4 -6 7 -20 13 -32 13 -30 0 -105 25 -143 46 -30 18 -33 23 -33 70 0 64 13 81 40 49z m-258 -812 c31 -65 33 -73 33 -182 0 -80 -4 -115 -12 -118 -18 -6 -43 50 -43 96 0 22 -9 55 -19 73 -17 28 -19 45 -14 116 3 45 9 82 14 82 4 0 22 -30 41 -67z m-75 -225 c11 -13 23 -32 25 -43 3 -11 9 -29 14 -39 7 -19 6 -19 -22 2 -71 52 -87 69 -81 85 9 24 40 21 64 -5z m12 -136 c39 -45 50 -75 32 -86 -10 -7 -141 131 -141 148 0 39 45 14 109 -62z m5275 -258 c13 -5 16 -27 16 -126 0 -65 4 -149 10 -186 5 -37 14 -103 20 -147 13 -105 26 -181 41 -230 18 -64 50 -159 59 -175 4 -9 11 -30 14 -48 4 -17 12 -34 17 -37 5 -4 9 -14 9 -23 0 -9 7 -30 16 -47 14 -26 15 -124 15 -840 0 -445 4 -839 8 -875 13 -94 31 -192 41 -215 7 -17 18 -50 46 -136 5 -15 -57 -69 -118 -104 -9 -5 -45 -27 -78 -47 -69 -42 -106 -47 -141 -19 -20 17 -22 22 -11 38 6 10 17 29 22 43 6 14 15 33 20 43 17 28 23 165 11 252 -14 107 -38 279 -55 395 -49 331 -65 435 -91 615 -9 61 -23 155 -31 210 -35 241 -62 442 -89 675 -8 69 -21 169 -30 223 -61 393 -64 418 -67 602 l-3 160 30 7 c33 8 295 1 319 -8z m138 -18 c24 -8 63 -17 88 -20 25 -4 59 -11 75 -15 17 -5 57 -17 90 -26 222 -64 277 -85 269 -104 -9 -23 -33 -118 -45 -176 -5 -27 -15 -62 -21 -77 -8 -22 -7 -36 7 -65 9 -21 23 -51 30 -68 35 -77 45 -104 45 -118 0 -9 4 -18 9 -21 5 -4 12 -24 16 -46 4 -22 10 -42 15 -45 4 -3 11 -22 14 -42 4 -21 11 -49 15 -63 19 -53 41 -169 51 -260 11 -107 32 -275 54 -425 8 -55 22 -149 31 -210 25 -175 44 -303 60 -405 16 -99 36 -233 59 -385 8 -49 19 -123 26 -163 7 -45 27 -106 51 -157 21 -46 39 -86 39 -89 0 -2 5 -17 11 -33 35 -84 59 -161 59 -186 0 -35 -29 -87 -50 -88 -77 -6 -107 31 -126 156 -27 177 -50 281 -73 325 -5 9 -12 31 -16 50 -4 19 -11 41 -16 50 -4 8 -17 44 -29 80 -11 36 -25 74 -29 85 -5 11 -32 85 -61 165 -29 80 -56 154 -61 165 -5 11 -38 99 -74 195 -36 96 -69 183 -75 192 -5 10 -10 23 -10 30 -1 7 -9 31 -20 53 -11 22 -19 47 -20 56 0 8 -4 19 -8 25 -5 5 -24 50 -42 99 -18 50 -41 109 -51 132 -11 23 -19 46 -19 51 0 5 -7 23 -15 38 -8 16 -15 36 -15 44 0 9 -4 20 -8 25 -4 6 -18 37 -31 70 -12 33 -27 69 -32 80 -4 11 -18 49 -30 85 -11 36 -27 79 -35 97 -8 17 -14 37 -14 45 0 8 -4 18 -8 23 -10 12 -76 220 -91 290 -29 128 -63 517 -52 588 2 10 14 9 63 -7z m-5094 -3182 c28 -19 28 -44 1 -72 -17 -19 -27 -22 -57 -17 -58 10 -62 13 -62 44 0 34 31 61 70 61 14 0 36 -7 48 -16z m1248 -64 c32 -16 64 -30 71 -30 7 0 24 -11 40 -24 l28 -24 -60 -27 c-121 -54 -164 -63 -313 -69 -159 -6 -238 6 -248 37 -3 10 2 34 11 53 16 35 37 42 79 25 33 -13 212 48 230 78 14 22 101 12 162 -19z m-1163 -119 c-29 -39 -84 -54 -172 -47 -58 5 -80 11 -98 28 -13 12 -23 25 -23 30 0 12 48 10 55 -2 3 -5 41 -10 83 -9 59 0 88 5 122 22 51 26 62 18 33 -22z m1502 10 c7 -13 -43 -51 -69 -51 -11 -1 -32 -7 -46 -15 -14 -8 -37 -14 -52 -15 -15 0 -29 -4 -32 -9 -7 -11 -73 -22 -92 -14 -23 9 -5 23 30 23 19 0 39 6 45 14 7 8 26 18 42 21 17 4 42 13 57 21 15 8 35 14 44 14 9 0 20 5 23 10 8 13 42 13 50 1z m-320 -121 c-3 -5 -24 -10 -46 -10 -21 0 -39 5 -39 10 0 6 21 10 46 10 27 0 43 -4 39 -10z m-152 -16 c51 -9 47 -22 -10 -29 -27 -3 -68 -12 -93 -20 -64 -21 -258 -21 -288 1 -12 8 -22 22 -22 31 0 14 9 15 68 8 89 -11 143 -10 222 2 87 14 80 14 123 7z"/> <path d="M2120 11323 c-3 -47 0 -496 3 -499 6 -6 1159 -6 1164 0 3 2 4 116 4 253 l0 248 -585 3 c-322 1 -586 -1 -586 -5z m820 -92 c8 0 33 0 55 2 22 2 48 -1 57 -7 13 -8 21 -7 30 2 18 18 36 15 73 -13 47 -36 61 -76 45 -124 -9 -28 -9 -43 -1 -59 28 -53 -38 -114 -121 -112 -213 4 -266 4 -368 1 -36 0 -94 0 -130 2 -36 2 -77 0 -91 -4 -14 -4 -46 -3 -69 1 -24 4 -52 5 -62 1 -35 -13 -88 1 -119 30 -25 24 -30 35 -28 66 2 21 0 56 -5 79 -6 34 -3 47 16 77 40 62 56 64 398 62 168 -1 312 -3 320 -4z"/> <path d="M3412 11075 l3 -256 550 0 550 0 3 256 2 255 -555 0 -555 0 2 -255z m919 160 c73 -10 93 -44 94 -154 1 -98 -16 -141 -61 -153 -25 -7 -200 -10 -684 -9 l-125 0 -27 32 c-25 29 -27 39 -26 112 1 87 24 153 58 165 25 9 709 15 771 7z"/> <path d="M4640 11325 c-3 -42 0 -497 3 -502 3 -5 251 -6 552 -3 l546 5 0 250 0 250 -550 3 c-303 1 -551 0 -551 -3z m947 -103 c51 -28 63 -58 63 -158 l0 -94 -39 -26 -39 -25 -364 -5 c-199 -3 -381 -2 -403 3 -57 12 -75 52 -75 161 0 95 18 139 60 148 14 3 30 7 35 9 6 1 174 2 375 1 263 -1 371 -5 387 -14z"/> <path d="M5855 11075 l0 -255 543 -2 c299 -2 548 -1 552 2 4 3 7 97 6 210 0 113 1 225 4 250 l5 45 -555 3 -555 2 0 -255z m981 127 c33 -36 33 -38 32 -121 -1 -96 -19 -139 -65 -160 -19 -9 -126 -11 -402 -10 l-375 2 -42 41 -42 41 5 88 c6 85 7 88 43 121 l37 33 387 1 388 1 34 -37z"/> <path d="M7075 11075 l0 -255 545 -2 c300 -2 549 0 553 3 4 3 8 118 8 255 l0 249 -553 3 -553 2 0 -255z m967 149 c42 -21 56 -68 52 -160 -5 -100 -9 -111 -45 -130 -26 -13 -84 -15 -402 -14 -205 1 -387 4 -405 7 -49 8 -65 40 -69 140 -3 89 9 129 46 155 29 20 784 22 823 2z"/> <path d="M8300 11075 l0 -255 554 0 554 0 0 255 0 255 -554 0 -554 0 0 -255z m964 146 c42 -36 55 -83 48 -163 -8 -80 -29 -124 -65 -136 -18 -6 -223 -7 -357 -1 -14 0 -97 -2 -185 -6 -187 -7 -268 5 -293 43 -10 16 -16 53 -18 111 -3 85 -2 89 27 124 16 20 39 37 52 40 12 2 191 4 397 4 330 0 377 -2 394 -16z"/> <path d="M9525 11075 c0 -140 2 -255 5 -255 238 -2 1164 1 1167 4 3 2 4 116 4 253 l0 248 -588 3 -588 2 0 -255z m1008 156 c23 -5 38 -17 54 -46 18 -33 21 -51 18 -128 -2 -84 -4 -90 -31 -112 -24 -19 -44 -23 -148 -29 -182 -10 -568 -7 -684 6 -98 10 -104 12 -114 37 -14 37 -18 180 -6 205 6 12 14 28 18 36 14 31 99 37 483 37 207 0 392 -3 410 -6z"/> <path d="M2215 10730 c-55 -5 -57 -6 -26 -12 45 -11 1019 -8 1051 2 21 7 22 8 5 10 -47 5 -975 5 -1030 0z"/> <path d="M3450 10731 c-34 -6 -33 -7 20 -14 78 -10 981 -7 1005 3 11 5 16 9 10 10 -40 5 -1007 6 -1035 1z"/> <path d="M4705 10730 c-36 -5 -38 -6 -15 -13 37 -10 223 -8 240 3 11 7 7 10 -20 11 -99 5 -169 5 -205 -1z"/> <path d="M5510 10731 c-54 -10 -13 -21 73 -20 61 1 143 13 127 18 -18 6 -171 8 -200 2z"/> <path d="M5916 10730 c-18 -6 -18 -7 5 -13 34 -9 947 -6 984 3 24 6 17 8 -35 10 -193 6 -938 6 -954 0z"/> <path d="M7134 10730 l-29 -6 34 -7 c48 -10 972 -7 996 3 11 5 16 10 10 11 -22 5 -983 4 -1011 -1z"/> <path d="M8362 10733 c-34 -14 11 -23 113 -23 118 0 159 13 78 24 -53 7 -172 7 -191 -1z"/> <path d="M9175 10731 l-40 -6 49 -8 c59 -9 142 -8 176 2 57 16 -95 26 -185 12z"/> <path d="M9590 10731 l-45 -6 40 -8 c55 -10 257 -9 273 2 29 18 -159 27 -268 12z"/> <path d="M10485 10730 c-30 -4 -35 -7 -22 -13 23 -9 153 -8 187 2 23 7 23 8 5 13 -23 7 -112 6 -170 -2z"/> <path d="M5158 10717 c28 -7 56 -7 85 0 39 10 36 11 -43 11 -79 0 -82 -1 -42 -11z"/> <path d="M8820 10720 c33 -11 90 -11 115 0 13 6 -7 8 -60 8 -55 0 -72 -3 -55 -8z"/> <path d="M10123 10723 c15 -2 39 -2 55 0 15 2 2 4 -28 4 -30 0 -43 -2 -27 -4z"/> <path d="M4993 10653 c-38 -26 -28 -53 52 -135 41 -42 75 -84 75 -95 0 -10 -17 -28 -38 -41 -20 -13 -66 -50 -102 -82 -36 -33 -88 -79 -117 -102 -28 -24 -54 -52 -57 -62 -6 -21 19 -76 34 -76 6 0 28 17 50 39 22 21 72 67 112 102 40 35 93 83 119 107 25 23 53 42 61 42 8 0 29 -21 47 -46 18 -25 51 -66 73 -92 96 -113 103 -117 138 -82 12 12 17 26 13 37 -7 20 -92 119 -165 195 -27 27 -48 52 -48 56 1 4 29 28 63 54 34 26 81 62 104 80 60 47 66 84 18 106 -22 10 -32 4 -124 -78 -55 -50 -106 -90 -113 -90 -7 0 -20 11 -28 24 -22 35 -111 136 -129 145 -10 6 -24 3 -38 -6z"/> <path d="M9024 10633 c-22 -21 -68 -65 -103 -97 l-64 -60 -19 25 c-38 48 -44 55 -86 107 -46 54 -78 66 -102 37 -20 -24 -4 -56 70 -134 38 -41 70 -79 70 -86 0 -6 -15 -22 -32 -35 -18 -13 -90 -73 -160 -133 -128 -110 -140 -126 -118 -166 18 -34 37 -31 82 13 24 23 79 73 123 111 44 38 98 86 119 107 21 21 43 37 47 36 4 -2 27 -28 51 -59 136 -178 157 -197 194 -180 29 13 32 52 6 78 -10 10 -47 51 -82 92 -36 41 -75 86 -88 100 l-24 26 30 25 c26 23 83 71 153 129 35 29 37 64 7 85 -30 21 -28 22 -74 -21z"/> <path d="M9933 10663 c-34 -13 -5 -66 96 -171 22 -24 41 -46 41 -51 0 -4 -39 -41 -87 -82 -49 -41 -123 -105 -165 -142 l-78 -68 15 -30 c18 -33 45 -38 72 -11 10 10 64 57 120 105 56 49 116 104 132 123 17 19 37 34 44 34 8 0 34 -25 57 -56 24 -31 50 -64 59 -73 9 -9 32 -38 51 -64 31 -44 37 -48 70 -45 31 3 35 6 38 33 2 31 -17 56 -154 197 -61 64 -61 70 -2 115 133 103 158 127 155 158 -2 26 -6 30 -35 33 -34 3 -62 -18 -170 -130 -44 -46 -45 -46 -68 -30 -13 9 -24 22 -24 29 0 6 -4 13 -8 15 -4 2 -28 29 -52 61 -44 56 -67 67 -107 50z"/> <path d="M10729 7663 c-11 -13 -14 -72 -15 -277 l-2 -261 -168 3 c-93 2 -182 1 -197 -3 -25 -7 -28 -11 -25 -43 3 -35 5 -37 48 -45 25 -5 111 -6 193 -3 113 5 147 3 148 -7 0 -6 0 -145 0 -307 -1 -162 2 -308 7 -325 10 -35 36 -44 48 -18 5 10 10 153 12 318 l3 301 -26 26 c-23 23 -25 32 -19 65 3 21 14 46 23 57 34 39 27 536 -8 536 -5 0 -15 -7 -22 -17z"/> <path d="M8244 6395 c-3 -8 -3 -19 1 -25 11 -18 25 -11 25 15 0 27 -17 34 -26 10z"/> <path d="M8420 6357 c-3 -3 -34 -7 -68 -9 -35 -1 -66 -6 -69 -11 -2 -4 13 -15 34 -23 69 -29 308 -5 276 27 -10 10 -165 24 -173 16z"/> <path d="M10373 6351 c-50 -9 -61 -17 -44 -34 17 -17 355 -17 373 1 8 8 9 15 2 22 -13 13 -274 22 -331 11z"/> <path d="M2463 9953 c-7 -2 -13 -17 -13 -33 0 -22 18 -48 75 -108 69 -73 88 -102 67 -102 -4 0 -19 -10 -32 -22 -14 -13 -55 -48 -90 -78 -143 -120 -200 -175 -200 -192 0 -44 62 -50 105 -11 16 15 65 59 110 97 44 38 96 86 116 107 20 22 43 39 51 39 9 0 42 -34 74 -76 128 -165 127 -164 155 -164 31 0 52 21 47 48 -3 19 -75 105 -160 193 -27 27 -48 55 -48 63 0 8 12 22 28 31 15 10 62 47 105 83 77 65 92 93 65 120 -25 25 -55 10 -143 -73 -50 -46 -99 -84 -110 -85 -14 0 -35 20 -64 60 -78 107 -96 120 -138 103z"/> <path d="M4580 6768 c0 -19 2 -20 10 -8 13 19 13 30 0 30 -5 0 -10 -10 -10 -22z"/> <path d="M8835 6710 c-13 -22 8 -47 83 -97 42 -28 86 -59 97 -67 84 -66 118 -87 138 -84 51 7 16 46 -133 148 -39 27 -115 84 -128 97 -16 15 -48 17 -57 3z"/> <path d="M9103 5808 c-6 -7 -22 -38 -36 -68 -89 -193 -107 -232 -107 -236 0 -3 -9 -26 -21 -52 -41 -95 -62 -150 -84 -222 -10 -30 -24 -70 -31 -88 -8 -18 -14 -45 -14 -60 0 -16 -7 -37 -15 -48 -8 -10 -15 -32 -15 -49 0 -42 -11 -76 -21 -69 -14 8 -11 71 6 111 8 19 15 51 15 70 0 18 7 50 15 70 18 42 19 79 4 88 -16 10 -49 -25 -49 -53 0 -13 -6 -54 -14 -91 -32 -147 -39 -179 -52 -251 -38 -208 -45 -273 -30 -289 20 -20 46 1 46 38 0 14 4 42 9 61 5 19 12 70 16 113 7 77 7 78 27 61 29 -27 52 -7 59 53 4 27 11 65 17 84 6 19 20 68 33 109 12 41 26 79 30 84 5 6 9 18 9 27 0 9 9 38 21 65 23 56 30 72 55 134 24 62 51 124 85 197 16 34 29 65 29 67 0 3 14 28 31 56 17 27 29 60 27 72 -3 26 -30 35 -45 16z"/> <path d="M4794 5135 c-4 -9 1 -39 10 -67 37 -117 14 -301 -49 -384 -25 -33 -25 -35 -15 -116 13 -106 13 -934 0 -1098 -11 -139 -26 -352 -40 -565 -5 -77 -13 -183 -19 -235 -11 -98 -25 -282 -41 -525 -5 -77 -14 -180 -19 -230 -10 -89 -23 -240 -42 -505 -16 -237 -17 -225 8 -228 17 -2 23 3 27 20 6 30 24 231 31 338 3 47 10 126 15 175 5 50 15 151 21 225 11 144 29 366 54 675 8 105 21 280 29 390 8 110 17 207 20 215 2 8 10 159 17 335 13 342 13 677 0 920 -8 147 -7 151 17 200 36 72 62 176 62 246 0 120 -63 276 -86 214z"/> <path d="M3903 4989 c-16 -16 -16 -36 -1 -46 16 -9 85 -20 208 -34 52 -5 124 -14 159 -19 68 -9 101 1 101 31 0 23 -21 29 -101 29 -79 0 -243 22 -334 46 -11 3 -26 0 -32 -7z"/> <path d="M4562 1075 c-7 -14 -12 -49 -13 -78 0 -29 -4 -74 -9 -102 -33 -195 -33 -215 -4 -215 24 0 44 43 44 95 0 27 5 77 11 110 16 92 26 189 21 203 -7 21 -38 13 -50 -13z"/> <path d="M11774 5713 c-50 -93 -117 -209 -123 -213 -7 -6 -26 -41 -78 -142 -19 -38 -39 -68 -44 -68 -5 0 -9 -8 -9 -17 0 -9 -14 -46 -31 -82 -58 -125 -77 -175 -89 -234 -4 -21 -13 -44 -19 -50 -6 -6 -11 -29 -11 -52 -1 -22 -7 -51 -15 -65 -16 -28 -21 -225 -6 -234 5 -3 12 -22 16 -42 3 -20 11 -44 16 -53 5 -9 14 -27 19 -41 6 -14 19 -38 30 -55 11 -16 24 -39 29 -50 11 -24 123 -145 134 -145 10 0 71 -42 75 -52 2 -5 11 -8 21 -8 9 0 31 -10 50 -23 l32 -22 0 -745 c0 -715 -1 -745 -19 -748 -10 -2 -38 16 -67 43 -26 25 -60 55 -74 66 -33 26 -104 85 -150 125 -20 17 -51 39 -68 50 -23 13 -33 26 -34 44 -2 93 -11 185 -18 194 -5 6 -12 27 -16 46 -10 50 -37 123 -52 138 -7 7 -13 19 -13 27 0 7 -7 15 -15 19 -8 3 -15 13 -15 23 0 10 -33 55 -74 99 -64 69 -87 87 -163 123 -48 23 -101 49 -116 57 -16 8 -41 14 -56 14 -15 0 -36 7 -47 15 -10 8 -34 15 -52 15 -18 0 -48 6 -67 14 -19 8 -74 16 -122 17 -48 2 -101 8 -118 15 -16 6 -74 15 -127 18 -94 7 -98 6 -98 -13 0 -11 4 -22 9 -25 11 -7 121 -192 121 -204 0 -6 3 -12 8 -14 10 -4 52 -65 52 -76 0 -5 7 -15 15 -22 8 -7 15 -18 15 -26 0 -7 14 -28 30 -46 17 -18 30 -36 30 -41 0 -9 62 -95 118 -166 32 -40 127 -137 164 -168 15 -12 49 -32 75 -43 26 -12 57 -25 68 -30 40 -18 227 -31 284 -20 29 5 80 10 113 10 l59 0 82 -72 c45 -40 87 -76 92 -80 39 -32 63 -52 85 -71 14 -12 53 -44 87 -70 35 -27 67 -56 73 -66 5 -10 9 -108 9 -218 0 -110 5 -211 10 -224 5 -13 11 -22 12 -19 1 3 4 75 8 160 l6 155 60 32 c33 18 69 37 80 43 11 5 47 26 80 45 33 19 67 38 75 42 8 5 34 21 57 37 33 22 49 27 70 21 155 -38 389 -24 523 32 76 31 224 121 265 160 11 10 35 29 53 42 58 41 304 290 297 301 -3 5 -33 10 -66 10 -33 0 -69 5 -80 11 -13 6 -113 10 -272 10 -208 0 -258 -3 -282 -15 -17 -9 -42 -16 -56 -16 -15 0 -40 -7 -55 -15 -16 -8 -37 -15 -46 -15 -10 0 -18 -4 -18 -10 0 -5 -6 -10 -13 -10 -17 0 -119 -76 -131 -98 -5 -9 -18 -26 -28 -36 -27 -29 -98 -152 -98 -170 0 -8 -4 -18 -10 -21 -5 -3 -10 -14 -10 -23 -1 -9 -9 -35 -20 -57 -11 -22 -19 -45 -20 -52 0 -6 -26 -25 -57 -41 -89 -44 -196 -103 -213 -116 -31 -24 -77 -45 -84 -39 -3 3 -6 212 -6 463 0 430 1 458 18 473 10 10 24 17 30 17 7 0 12 5 12 10 0 6 8 14 18 17 9 4 69 46 132 93 63 48 125 92 137 98 12 7 27 18 35 25 7 7 38 31 68 52 30 21 57 41 60 44 3 4 19 18 37 33 32 25 34 26 185 25 156 -1 254 14 320 49 14 8 33 14 42 14 68 0 276 185 356 315 13 22 28 42 32 43 4 2 8 12 8 23 0 11 7 22 15 25 8 4 15 13 15 20 0 8 7 17 15 20 8 4 15 17 15 29 0 13 4 26 9 29 8 5 24 36 55 106 4 8 15 31 26 50 10 19 14 39 10 45 -5 6 -39 9 -77 9 -133 -2 -135 -3 -131 -21 2 -12 16 -16 58 -18 31 -1 61 -5 68 -9 21 -13 13 -64 -18 -109 -16 -25 -30 -49 -30 -54 0 -6 -24 -46 -54 -91 -30 -44 -57 -90 -61 -101 -3 -11 -14 -23 -23 -26 -9 -3 -30 -24 -47 -46 -25 -34 -74 -83 -166 -165 -9 -8 -24 -14 -34 -14 -10 0 -26 -6 -34 -14 -28 -25 -172 -59 -301 -70 -125 -12 -125 -12 -157 12 -31 23 -33 28 -33 88 0 34 4 65 9 69 6 3 13 26 17 50 3 25 10 48 15 51 5 3 9 18 9 33 0 15 9 38 20 51 11 13 20 26 20 29 0 4 18 27 40 51 22 24 40 50 40 57 0 7 8 17 18 22 10 5 40 28 67 50 27 23 55 41 62 41 6 0 29 10 49 22 39 23 161 49 324 70 52 6 97 13 100 15 29 24 -162 23 -257 -2 -31 -8 -69 -15 -85 -15 -15 0 -29 -4 -32 -9 -4 -5 -24 -12 -46 -16 -22 -4 -40 -11 -40 -16 0 -5 -12 -12 -27 -15 -35 -9 -153 -95 -153 -111 0 -7 -4 -13 -9 -13 -6 0 -20 -18 -32 -40 -13 -22 -26 -40 -30 -40 -4 0 -17 -21 -29 -47 -11 -27 -28 -61 -35 -76 -8 -16 -15 -41 -15 -57 0 -15 -6 -33 -14 -39 -9 -7 -15 -43 -18 -105 -4 -77 -9 -98 -28 -124 -13 -18 -28 -32 -33 -32 -11 0 -74 -45 -313 -223 -101 -76 -189 -137 -195 -135 -6 2 -10 122 -10 347 0 385 -7 349 79 393 23 12 42 24 42 28 0 3 14 14 30 24 32 19 156 157 171 191 5 11 13 27 17 35 28 50 42 84 42 103 0 11 7 28 16 38 23 25 22 282 -1 325 -8 16 -15 43 -15 60 0 17 -7 37 -15 44 -8 7 -15 25 -15 40 0 16 -6 41 -14 57 -8 15 -22 46 -32 68 -9 22 -23 52 -31 67 -7 14 -13 31 -13 38 0 6 -7 18 -15 26 -8 9 -15 24 -15 34 0 10 -4 22 -10 25 -5 3 -21 30 -35 58 -14 29 -30 59 -35 67 -41 66 -94 158 -125 218 -20 40 -39 72 -41 72 -3 0 -12 -12 -20 -27z m68 -147 c15 -17 30 -40 34 -51 4 -11 17 -32 29 -47 13 -15 42 -66 65 -115 24 -48 49 -92 56 -96 8 -4 14 -18 14 -30 0 -12 11 -42 24 -67 13 -25 29 -63 35 -85 7 -22 19 -53 26 -70 40 -88 58 -182 58 -305 -1 -132 -6 -161 -46 -235 -6 -11 -17 -33 -26 -50 -26 -53 -163 -205 -215 -240 -77 -50 -125 -71 -140 -60 -8 6 -53 37 -101 69 -48 32 -89 65 -92 72 -2 6 -25 34 -50 61 -25 26 -56 71 -69 98 -13 28 -28 57 -33 65 -11 19 -31 147 -31 200 0 57 35 226 59 288 12 29 21 62 21 73 0 11 11 35 24 52 13 18 27 43 30 57 13 45 39 105 61 135 12 17 44 73 71 125 26 52 57 107 69 122 11 15 28 38 38 53 23 32 50 26 89 -19z m-1317 -1895 c121 -18 190 -32 200 -42 5 -5 19 -9 32 -9 12 0 53 -12 90 -26 37 -14 83 -31 102 -38 18 -7 36 -17 40 -23 3 -5 22 -20 41 -33 57 -39 140 -123 140 -142 0 -9 8 -23 18 -30 50 -36 120 -213 128 -325 6 -74 5 -79 -18 -101 -22 -19 -42 -24 -137 -32 -98 -8 -121 -7 -189 11 -143 37 -210 83 -347 239 -57 64 -86 106 -161 229 -21 35 -46 71 -56 81 -9 10 -19 29 -23 42 -4 12 -16 34 -26 47 -11 13 -19 29 -19 35 0 6 -9 22 -20 36 -24 31 -26 76 -2 89 17 11 99 8 207 -8z m2445 -571 c111 0 146 -3 208 -16 51 -11 72 -20 72 -31 0 -26 -41 -84 -66 -93 -13 -5 -24 -17 -24 -27 -1 -10 -24 -37 -53 -60 -243 -194 -242 -194 -382 -249 -93 -36 -234 -53 -345 -42 -121 12 -130 17 -130 75 1 45 8 65 64 171 21 39 148 167 185 186 14 8 62 26 106 41 44 14 85 31 91 36 6 5 31 7 55 4 24 -3 67 -1 94 4 28 5 64 7 80 5 17 -2 37 -4 45 -4z"/> <path d="M11150 2008 c0 -10 9 -40 20 -68 12 -30 20 -74 20 -109 0 -38 5 -63 14 -70 9 -8 14 -36 15 -85 1 -44 8 -86 16 -103 9 -17 15 -57 15 -104 0 -56 4 -80 15 -89 11 -9 15 -32 15 -79 0 -36 7 -84 15 -106 8 -22 15 -67 15 -100 0 -33 7 -78 15 -100 8 -22 15 -64 15 -93 0 -29 5 -62 11 -73 6 -11 13 -57 17 -101 5 -55 11 -83 21 -86 11 -4 12 15 7 103 -4 59 -9 112 -12 116 -7 12 -33 155 -44 249 -6 41 -14 85 -20 98 -5 13 -10 45 -10 72 0 27 -5 61 -11 77 -6 15 -17 82 -25 148 -16 131 -27 199 -43 260 -6 22 -11 72 -11 111 0 110 -7 107 268 111 125 1 242 5 261 9 85 14 -8 22 -292 26 -284 3 -307 2 -307 -14z"/> <path d="M12085 2023 c-137 -2 -257 -6 -265 -10 -31 -14 90 -23 293 -24 l207 0 17 -25 c17 -26 15 -61 -17 -259 -13 -79 -15 -149 -5 -165 15 -25 25 7 25 84 0 57 5 88 15 102 9 12 14 43 15 82 0 37 6 75 16 93 8 17 18 52 21 80 l6 49 -39 -2 c-21 -2 -151 -4 -289 -5z"/> <path d="M12293 1513 c-7 -12 -13 -38 -13 -58 0 -20 -4 -55 -9 -78 -5 -23 -19 -107 -31 -187 -12 -80 -28 -175 -36 -211 -8 -37 -14 -80 -14 -95 0 -16 -7 -64 -15 -107 -19 -99 -20 -180 -2 -175 8 3 13 31 15 83 2 48 9 86 17 99 10 13 15 46 15 98 0 55 4 81 15 92 10 10 15 36 15 83 1 40 7 78 15 93 8 15 14 53 15 92 0 37 7 85 15 106 21 50 18 201 -2 165z"/> <path d="M11403 555 c2 -80 21 -95 25 -20 2 34 -2 57 -13 70 -14 19 -15 15 -12 -50z"/> <path d="M12143 563 c-7 -12 -13 -27 -13 -33 0 -7 -9 -24 -21 -38 l-20 -27 26 -8 c38 -13 47 1 43 69 -3 53 -4 57 -15 37z"/> <path d="M5570 499 c-233 -8 -245 -9 -205 -18 53 -12 2768 -7 2772 5 3 8 -67 12 -239 12 -134 1 -243 2 -243 3 0 5 -1915 3 -2085 -2z"/> <path d="M3892 481 c-19 -11 18 -21 85 -21 57 0 86 8 77 21 -7 11 -144 12 -162 0z"/> <path d="M9060 481 c0 -12 80 -22 165 -20 200 4 181 29 -22 29 -79 0 -143 -4 -143 -9z"/> <path d="M9974 458 c-9 -14 17 -17 187 -23 317 -12 572 -11 576 2 3 7 -25 13 -89 17 -140 9 -669 12 -674 4z"/> <path d="M2731 451 c-19 -12 21 -33 51 -27 13 3 102 8 198 10 96 3 176 5 178 6 1 0 2 5 2 10 0 13 -409 13 -429 1z"/> <path d="M2598 445 c-2 -3 -162 -8 -354 -11 -192 -4 -356 -10 -364 -15 -28 -14 31 -27 110 -23 41 2 207 8 369 14 162 6 298 13 303 16 15 10 -3 24 -31 24 -15 0 -30 -2 -33 -5z"/> <path d="M10750 444 c0 -13 35 -33 57 -34 19 0 41 16 32 25 -9 7 -89 16 -89 9z"/> <path d="M10893 443 c-23 -4 -30 -17 -15 -27 15 -9 418 -19 458 -11 74 14 3 24 -199 28 -105 3 -199 7 -207 9 -8 3 -25 3 -37 1z"/> <path d="M1782 408 c5 -15 67 -18 71 -3 1 6 -15 11 -37 13 -28 3 -37 0 -34 -10z"/> <path d="M1495 400 c-115 -4 -211 -7 -212 -8 -2 -1 -3 -7 -3 -13 0 -11 299 -6 423 7 56 6 83 26 30 22 -16 -1 -122 -5 -238 -8z"/> <path d="M1200 380 c-14 -4 -97 -9 -185 -9 -88 -1 -178 -6 -200 -12 -22 -6 -98 -15 -170 -19 -71 -4 -182 -15 -245 -24 -226 -30 -249 -37 -237 -69 6 -15 109 -36 207 -41 36 -2 75 -8 87 -15 12 -6 66 -11 125 -11 69 0 108 -4 116 -12 9 -9 76 -15 215 -19 111 -4 218 -12 237 -18 20 -6 111 -11 220 -10 222 1 193 13 -75 29 -99 6 -223 15 -275 20 -52 4 -143 9 -202 9 -59 1 -109 5 -112 10 -6 9 -82 20 -166 24 -38 2 -45 5 -50 27 -4 17 -8 21 -14 12 -4 -6 -17 -12 -28 -12 -21 0 -21 0 -2 21 13 14 26 19 44 16 14 -3 32 1 41 9 9 8 47 16 98 19 45 2 86 7 90 9 4 3 47 7 97 11 102 6 280 21 372 31 42 5 62 11 62 20 0 15 -12 16 -50 4z"/> <path d="M12226 360 c11 -11 277 -31 315 -23 15 3 30 0 33 -6 10 -16 46 -14 46 3 0 8 -21 17 -57 25 -69 14 -351 15 -337 1z"/> <path d="M12650 330 c0 -10 46 -20 95 -20 17 0 44 0 62 0 18 0 35 -5 38 -10 3 -6 15 -10 25 -10 24 0 90 -31 90 -42 0 -4 -7 -8 -15 -8 -7 0 -18 -6 -22 -14 -8 -15 -141 -30 -368 -42 -55 -3 -190 -14 -300 -24 -109 -10 -203 -16 -207 -14 -13 8 -178 -8 -178 -17 0 -13 334 -11 367 2 15 6 121 14 235 18 143 4 211 10 220 19 8 8 47 12 116 12 57 0 111 4 121 9 9 6 62 14 117 20 129 14 176 23 181 37 7 20 -27 44 -63 44 -20 0 -43 4 -52 9 -9 5 -60 11 -112 14 -53 3 -108 11 -123 16 -35 14 -227 15 -227 1z"/> <path d="M1728 122 c-68 -3 -88 -15 -44 -26 13 -3 163 -6 335 -6 171 -1 334 -5 363 -11 81 -14 424 -24 431 -12 4 7 -43 13 -136 17 -78 4 -203 11 -277 16 -74 5 -232 12 -350 15 -118 3 -224 7 -235 8 -11 2 -50 1 -87 -1z"/> <path d="M11212 113 c-68 -3 -92 -7 -89 -16 3 -9 70 -11 278 -9 280 3 333 7 323 23 -5 8 -293 9 -512 2z"/> <path d="M10923 95 c-62 -7 -130 -10 -170 -5 -38 4 -79 3 -91 -2 -13 -4 -86 -9 -163 -10 -76 -1 -144 -5 -151 -10 -10 -6 479 -5 605 2 9 0 23 0 30 0 33 -2 97 14 94 24 -5 15 -36 16 -154 1z"/> <path d="M2840 69 c0 -5 55 -9 123 -9 82 0 117 3 107 10 -18 12 -230 10 -230 -1z"/> <path d="M3520 49 c-139 -6 -86 -10 193 -15 110 -1 218 1 240 6 32 6 8 8 -98 11 -77 1 -158 3 -180 3 -22 1 -92 -1 -155 -5z"/> <path d="M9955 50 l-30 -8 32 -1 c17 0 35 4 38 9 7 11 3 11 -40 0z"/> <path d="M9468 38 c17 -8 26 -8 34 0 9 9 4 12 -22 11 -33 0 -34 -1 -12 -11z"/> </g> </svg> 